<svg width="600" height="120" viewBox="0 0 600 120" fill="none"
    xmlns="http://www.w3.org/2000/svg">
    <rect width="600" height="120" rx="8" fill="#ffffff"/>
    <text x="300" y="25" text-anchor="middle" fill="#64748b" font-family="Arial, sans-serif" font-size="14" font-weight="500">Built for the TALL stack</text>

    <!-- Laravel -->
    <rect x="50" y="40" width="80" height="80" rx="8" fill="#f05340"/>
    <text x="90" y="75" text-anchor="middle" fill="white" font-family="Arial, sans-serif" font-size="12" font-weight="600">Laravel</text>
    <rect x="55" y="45" width="70" height="4" rx="2" fill="white" fill-opacity="0.8"/>
    <rect x="55" y="55" width="50" height="4" rx="2" fill="white" fill-opacity="0.8"/>
    <rect x="55" y="65" width="60" height="4" rx="2" fill="white" fill-opacity="0.8"/>
    <rect x="55" y="75" width="40" height="4" rx="2" fill="white" fill-opacity="0.8"/>

    <!-- Livewire -->
    <rect x="160" y="40" width="80" height="80" rx="8" fill="#fb70a9"/>
    <text x="200" y="75" text-anchor="middle" fill="white" font-family="Arial, sans-serif" font-size="12" font-weight="600">Livewire</text>
    <circle cx="185" cy="55" r="6" fill="white"/>
    <circle cx="200" cy="55" r="6" fill="white"/>
    <circle cx="215" cy="55" r="6" fill="white"/>
    <rect x="180" y="70" width="40" height="3" rx="1.5" fill="white"/>

    <!-- Alpine.js -->
    <rect x="270" y="40" width="80" height="80" rx="8" fill="#8bc0d0"/>
    <text x="310" y="75" text-anchor="middle" fill="white" font-family="Arial, sans-serif" font-size="12" font-weight="600">Alpine.js</text>
    <path d="M285 50 L295 60 L285 70 M315 50 L305 60 L315 70" stroke="white" stroke-width="3" stroke-linecap="round"/>
    <circle cx="300" cy="60" r="8" fill="none" stroke="white" stroke-width="2"/>

    <!-- Tailwind CSS -->
    <rect x="380" y="40" width="80" height="80" rx="8" fill="#06b6d4"/>
    <text x="420" y="75" text-anchor="middle" fill="white" font-family="Arial, sans-serif" font-size="12" font-weight="600">Tailwind</text>
    <rect x="390" y="50" width="40" height="4" rx="2" fill="white"/>
    <rect x="390" y="58" width="30" height="4" rx="2" fill="white"/>
    <rect x="390" y="66" width="35" height="4" rx="2" fill="white"/>
    <rect x="425" y="50" width="35" height="4" rx="2" fill="#06b6d4"/>
    <rect x="425" y="58" width="25" height="4" rx="2" fill="#06b6d4"/>
    <rect x="425" y="66" width="30" height="4" rx="2" fill="#06b6d4"/>
</svg>
