<svg width="800" height="450" viewBox="0 0 800 450" fill="none"
    xmlns="http://www.w3.org/2000/svg">
    <rect width="800" height="450" rx="12" fill="#f1f5f9"/>
    <rect x="20" y="20" width="760" height="410" rx="8" fill="#ffffff" stroke="#e2e8f0" stroke-width="2"/>
    <rect x="40" y="40" width="200" height="24" rx="4" fill="#e2e8f0"/>
    <rect x="40" y="80" width="150" height="16" rx="4" fill="#f1f5f9"/>
    <rect x="40" y="110" width="180" height="16" rx="4" fill="#f1f5f9"/>
    <rect x="40" y="140" width="120" height="16" rx="4" fill="#f1f5f9"/>
    <circle cx="80" cy="200" r="30" fill="#3b82f6"/>
    <rect x="130" y="180" width="100" height="40" rx="20" fill="#3b82f6"/>
    <text x="180" y="200" text-anchor="middle" fill="white" font-family="Arial, sans-serif" font-size="14" font-weight="600">Button</text>
    <rect x="40" y="260" width="300" height="40" rx="6" fill="#f8fafc" stroke="#e2e8f0"/>
    <rect x="50" y="270" width="80" height="20" rx="4" fill="#e2e8f0"/>
    <rect x="250" y="270" width="80" height="20" rx="4" fill="#3b82f6"/>
    <text x="290" y="282" text-anchor="middle" fill="white" font-family="Arial, sans-serif" font-size="12" font-weight="600">Submit</text>
    <rect x="40" y="320" width="300" height="80" rx="6" fill="#fef2f2" stroke="#fecaca"/>
    <rect x="50" y="330" width="20" height="20" rx="10" fill="#dc2626"/>
    <rect x="80" y="335" width="200" height="14" rx="2" fill="#fecaca"/>
    <rect x="80" y="355" width="150" height="14" rx="2" fill="#fecaca"/>
    <text x="400" y="225" fill="#64748b" font-family="Arial, sans-serif" font-size="16" font-weight="500">UI Preview</text>
</svg>
